<svg version="1.1" id="Layer_1" xmlns="http://www.w3.org/2000/svg" xmlns:xlink="http://www.w3.org/1999/xlink" x="0px" y="0px"
	 width="100%" viewBox="0 0 1235 773" enable-background="new 0 0 1235 773" xml:space="preserve">
<path fill="#9F9F9F" opacity="1.000000" stroke="none" 
	d="
M390.000000,1.000000 
	C487.020905,1.000000 584.041809,1.000000 681.530640,1.464092 
	C684.154663,20.905436 685.290100,40.069843 688.726501,58.812355 
	C692.979370,82.007919 698.511292,105.024216 704.682678,127.794876 
	C709.419495,145.272034 714.930481,162.705627 722.018311,179.339996 
	C732.366760,203.626785 744.283630,227.254395 755.817261,251.024597 
	C767.623108,275.356049 782.822449,297.663818 798.948730,319.219360 
	C812.171082,336.893280 826.502747,353.781952 841.003357,370.443695 
	C859.818542,392.062958 880.553467,411.856140 902.919983,429.751892 
	C918.866211,442.510834 935.812561,454.015564 952.215698,466.210449 
	C956.659424,469.514099 960.750732,473.291748 964.686951,477.148682 
	C964.388306,488.207703 964.429199,498.969940 964.406067,509.732025 
	C964.401367,511.938263 964.577209,513.582947 967.497131,513.622559 
	C970.591675,513.664368 970.952881,512.050171 970.911804,509.548309 
	C970.821960,504.081482 970.674744,498.594727 971.033020,493.147797 
	C971.346497,488.381958 972.795532,483.993439 978.654663,482.854858 
	C982.551025,484.649231 986.108704,486.232635 989.790039,488.218567 
	C989.913696,496.829468 989.913696,505.037811 989.913696,512.914978 
	C995.293640,514.566895 996.913452,512.969116 996.654846,508.399963 
	C996.403076,503.954193 996.781738,499.472717 997.260498,495.035187 
	C998.889587,495.477203 1000.208374,495.754150 1001.384155,496.325317 
	C1017.512207,504.159058 1033.455688,512.395752 1049.769287,519.819580 
	C1080.107910,533.625732 1111.699219,543.984131 1143.982422,552.137146 
	C1157.484863,555.547119 1171.168335,558.385132 1184.901489,560.700317 
	C1201.862549,563.559692 1218.960938,565.603699 1236.000000,568.000000 
	C1236.000000,636.611084 1236.000000,705.222229 1236.000000,774.000000 
	C1124.645874,774.000000 1013.291565,774.000000 901.380676,773.664490 
	C899.692688,771.923035 898.844971,769.986938 897.380615,769.203491 
	C891.256836,765.927734 884.893127,763.104126 878.719971,759.916260 
	C869.424011,755.115723 860.108826,750.335022 851.001343,745.192505 
	C844.091064,741.290588 837.520203,736.791565 830.747253,732.641541 
	C819.905518,725.998169 808.947815,719.540955 798.186096,712.771301 
	C792.703247,709.322266 787.541626,705.362732 782.232910,701.636719 
	C769.065552,692.395142 755.520630,683.640198 742.827271,673.788147 
	C727.943604,662.236084 713.582886,649.978638 699.398682,637.566223 
	C685.941345,625.789795 672.815125,613.616028 659.901733,601.242920 
	C650.114014,591.864746 640.688110,582.085266 631.475281,572.137878 
	C623.390991,563.408875 615.826660,554.198303 608.199829,544.843384 
	C609.760986,539.383606 608.790527,538.221863 602.654541,537.801270 
	C601.344727,536.794006 600.112915,536.122681 599.309204,535.111084 
	C591.698547,525.531799 584.249878,515.822754 576.556763,506.311005 
	C573.605469,502.662018 570.144226,499.425476 566.814941,495.541626 
	C566.714478,489.160492 566.714478,483.238708 566.714478,477.289124 
	C564.246277,477.289124 562.521301,477.289124 560.673462,477.289124 
	C560.454712,479.411987 560.269714,481.206482 559.765198,482.883850 
	C555.930603,477.767639 552.415649,472.768555 548.935059,467.419128 
	C550.603271,464.337524 552.237122,461.606293 554.049316,458.576874 
	C549.703308,457.640594 546.089966,457.475739 543.865356,461.786346 
	C539.517456,455.403107 535.213318,449.392517 531.348633,443.111633 
	C523.388794,430.175537 515.389282,417.250061 507.919434,404.030151 
	C500.502747,390.904327 493.476837,377.542419 486.721191,364.062683 
	C480.066925,350.785217 473.795441,337.307495 467.678406,323.771942 
	C462.973999,313.362152 458.582550,302.800018 454.399353,292.168945 
	C450.709320,282.791321 447.373627,273.267853 444.105896,263.731842 
	C437.941437,245.742737 431.635803,227.792572 425.980621,209.641861 
	C422.538818,198.595093 420.190002,187.206940 417.375458,175.965820 
	C414.842957,165.851425 412.279968,155.743835 409.868408,145.600433 
	C409.070465,142.244171 408.860291,138.750366 408.105682,135.381210 
	C406.189941,126.828239 403.665833,118.385979 402.221527,109.759384 
	C400.348022,98.568993 399.279083,87.243660 397.875336,75.974976 
	C397.387421,72.058121 396.974670,68.131569 396.454956,64.219101 
	C395.670959,58.317757 394.612854,52.445103 394.043793,46.524448 
	C392.586273,31.360165 391.334198,16.176136 390.000000,1.000000 
M573.090637,404.406494 
	C578.296265,411.156647 586.709167,411.591919 594.342529,406.778564 
	C601.125793,402.501282 603.811462,393.438904 600.134705,386.196014 
	C598.896240,383.756317 599.137146,382.433441 600.998535,380.657196 
	C605.697815,376.172974 610.368958,371.639465 614.751404,366.851196 
	C617.014282,364.378754 618.912292,364.013062 622.062988,365.256500 
	C638.326904,371.675201 657.598877,365.859711 667.565552,351.348328 
	C670.886047,346.513855 673.174255,340.970459 676.106934,335.424774 
	C681.218506,336.185730 686.777710,337.170013 692.377808,337.778656 
	C695.042603,338.068268 696.339844,338.823944 697.071350,341.693909 
	C698.716553,348.148315 705.009949,352.360382 711.298645,351.877991 
	C717.830139,351.376923 723.286865,346.322357 724.170471,339.954865 
	C725.077698,333.417511 721.326111,326.747498 715.551208,324.630737 
	C709.330994,322.350677 702.506226,324.777618 698.496765,330.435547 
	C697.689514,331.574646 695.992554,332.974243 694.864014,332.847321 
	C688.461914,332.127014 682.107849,330.979279 675.592651,329.954224 
	C675.429138,314.955322 670.007996,302.785065 657.617920,294.762451 
	C645.234680,286.744324 631.851074,285.824463 618.143372,292.032623 
	C612.175415,280.851868 606.444031,269.987274 600.564758,259.203339 
	C599.341736,256.960114 599.538696,255.558365 601.286072,253.588623 
	C606.802063,247.370544 606.873535,239.413361 601.859375,232.569061 
	C597.518616,226.643982 589.151917,224.431076 582.209839,227.371948 
	C575.238770,230.325119 570.807068,238.471771 572.248962,245.682678 
	C573.866028,253.769669 580.049072,259.712982 588.292480,259.120728 
	C593.814453,258.724030 596.136353,260.708801 597.658325,265.242432 
	C597.917053,266.013031 598.498413,266.670471 598.889587,267.402161 
	C603.723877,276.444214 608.550598,285.490356 612.742065,293.341858 
	C607.974121,299.824005 602.015015,304.840454 600.233215,311.054657 
	C597.401306,320.931458 591.759033,321.790741 583.318848,321.199371 
	C577.624451,320.800323 573.187744,320.892334 570.737488,314.209412 
	C568.615417,308.421631 560.722656,305.721619 554.748108,307.193146 
	C548.823242,308.652496 543.975281,315.114655 543.994202,321.527924 
	C544.012695,327.811584 548.870117,333.850708 555.441589,335.760254 
	C560.040161,337.096527 567.583496,333.417328 570.798462,328.807434 
	C571.797302,327.375275 574.031189,326.008942 575.709961,325.996460 
	C580.638062,325.959717 585.588745,327.063599 590.497131,326.870514 
	C594.769653,326.702515 595.484619,328.482483 596.178589,332.182159 
	C597.176941,337.504578 598.620056,342.987457 601.159668,347.710205 
	C603.855591,352.723602 608.054382,356.928833 611.036377,360.765839 
	C605.254150,366.563599 599.309570,372.524109 593.243652,378.606323 
	C586.206787,375.114319 576.181335,376.176788 572.431274,381.118195 
	C566.520081,388.907318 566.569702,397.452301 573.090637,404.406494 
M642.434570,483.065643 
	C637.308167,489.501526 636.641418,496.845154 640.317261,503.727112 
	C648.067139,518.236511 659.070251,516.451111 670.769409,508.680023 
	C670.938843,509.998169 671.118652,511.397369 671.328369,513.029053 
	C673.385315,512.930725 675.122192,512.847717 676.894592,512.763000 
	C676.894592,493.242157 676.894592,474.169098 676.894592,454.839233 
	C674.894775,454.839233 673.177856,454.839233 670.906494,454.839233 
	C670.906494,463.659485 670.906494,472.188843 670.906494,480.963226 
	C656.320312,474.058105 651.254333,474.414307 642.434570,483.065643 
M931.279419,476.552673 
	C920.797913,479.413422 915.171753,487.012238 916.170044,496.959808 
	C917.140625,506.632629 923.990723,513.415955 933.672424,514.291565 
	C943.693604,515.197815 952.245728,509.507538 954.560059,500.393768 
	C958.184326,486.120850 947.982788,475.183044 931.279419,476.552673 
M601.967834,506.569275 
	C593.201843,512.057068 584.302673,507.646271 583.869141,497.055878 
	C593.290039,497.055878 602.701538,497.055878 612.039612,497.055878 
	C613.006653,486.813446 608.417480,478.960205 600.713196,477.029846 
	C589.808655,474.297638 581.267944,478.404816 577.296387,488.290863 
	C573.943298,496.637299 577.568970,507.672333 585.094971,512.026794 
	C593.935791,517.141968 603.596802,515.192688 609.949402,506.948822 
	C607.987488,502.498260 605.283020,504.368988 601.967834,506.569275 
M747.830750,489.509033 
	C747.831360,492.835663 747.886841,496.163422 747.820496,499.488708 
	C747.698425,505.607513 749.406250,510.980042 755.514709,513.255554 
	C761.863892,515.620728 767.962402,514.814941 772.711182,509.241791 
	C772.948181,508.963623 773.383240,508.854156 773.805115,508.622742 
	C773.987061,510.283356 774.144531,511.719849 774.338013,513.485352 
	C776.187500,513.386108 777.771851,513.301147 779.291931,513.219604 
	C779.291931,500.960358 779.291931,489.124664 779.291931,477.249268 
	C777.147522,477.249268 775.541687,477.249268 773.044006,477.249268 
	C773.044006,484.441650 773.372314,491.417297 772.950562,498.347290 
	C772.538208,505.122711 767.934753,509.152130 762.031921,508.802948 
	C756.556152,508.479034 753.939270,505.067841 753.856445,497.880157 
	C753.778320,491.099426 753.839661,484.317108 753.839661,477.316406 
	C751.626892,477.316406 749.923584,477.316406 747.830750,477.316406 
	C747.830750,481.253967 747.830750,484.885742 747.830750,489.509033 
M797.177795,496.832947 
	C797.275146,495.340973 797.259521,493.831360 797.488953,492.359955 
	C798.659363,484.852783 802.378967,481.485382 808.913025,481.924438 
	C814.460388,482.297180 816.809998,485.724701 816.823242,493.502716 
	C816.834229,499.969482 816.825439,506.436249 816.825439,513.196045 
	C819.019226,513.196045 820.758667,513.196045 822.973816,513.196045 
	C822.973816,505.522369 823.102173,498.066925 822.933350,490.618225 
	C822.797302,484.612946 820.866821,479.406586 814.664978,477.116394 
	C808.438049,474.816925 802.904663,476.178833 798.203491,480.889374 
	C797.937622,481.155762 797.535278,481.285889 797.152954,481.504303 
	C796.697205,479.900055 796.301575,478.507233 795.938293,477.228394 
	C794.192810,477.228394 792.749756,477.228394 791.272827,477.228394 
	C791.272827,489.343994 791.272827,501.230560 791.272827,513.113281 
	C793.402954,513.113281 795.130859,513.113281 797.177612,513.113281 
	C797.177612,507.741302 797.177612,502.753387 797.177795,496.832947 
M711.595154,513.161560 
	C725.834534,519.127319 735.172424,509.724182 735.038330,499.643982 
	C734.881104,487.825500 735.001892,476.003326 735.002014,464.182739 
	C735.002014,462.253204 735.002014,460.323669 735.002014,458.456818 
	C732.483093,458.456818 730.719788,458.456818 728.488037,458.456818 
	C728.488037,468.531982 728.538757,478.327850 728.465271,488.122803 
	C728.431580,492.606781 729.008423,497.361786 727.694336,501.478699 
	C726.774597,504.360382 723.478516,507.178864 720.556274,508.472290 
	C718.724609,509.282990 714.066956,507.895477 713.371826,506.311707 
	C711.180481,501.318726 708.242004,501.585693 703.388916,503.922577 
	C705.971252,507.054871 708.407043,510.009369 711.595154,513.161560 
M842.119873,485.725464 
	C847.957581,480.509186 852.655701,480.496185 860.889404,485.742279 
	C861.741699,485.021759 862.653503,484.308807 863.492554,483.518677 
	C863.958679,483.079834 864.303528,482.512238 864.685425,482.025055 
	C857.698975,474.253876 844.756042,474.055756 837.556030,481.487823 
	C830.118774,489.164825 830.765991,503.010773 838.893250,510.094238 
	C846.345032,516.588989 858.972229,515.733582 864.629761,508.179993 
	C863.274170,507.047760 861.910156,505.908447 860.621155,504.831787 
	C852.489685,510.863800 844.557312,509.694214 840.572571,501.927277 
	C837.859619,496.639404 838.479431,491.347534 842.119873,485.725464 
M875.148865,488.625916 
	C875.149292,493.446655 875.077393,498.268707 875.165771,503.087860 
	C875.328369,511.948853 878.901550,514.954895 887.609985,514.244629 
	C892.000854,513.886475 893.003296,511.973724 891.664062,508.135071 
	C887.678345,508.558777 882.542419,510.553406 881.864319,504.715790 
	C881.017578,497.426086 881.660889,489.963318 881.660889,482.404663 
	C885.232910,482.236694 888.476868,482.084137 892.004089,481.918274 
	C891.895447,480.089813 891.812622,478.695343 891.703247,476.853638 
	C888.121277,476.853638 884.877258,476.853638 881.089661,476.853638 
	C881.089661,473.325287 881.089661,470.258423 881.089661,467.080414 
	C878.933167,467.080414 877.339233,467.080414 875.400696,467.080414 
	C875.241455,470.373810 875.092712,473.449921 874.933411,476.745209 
	C872.254700,476.930359 869.854248,477.096283 867.132690,477.284393 
	C867.275391,479.089081 867.385620,480.483002 867.499451,481.922760 
	C870.152405,482.127625 872.415039,482.302338 875.148804,482.513458 
	C875.148804,484.420532 875.148804,486.043945 875.148865,488.625916 
M628.912903,493.499329 
	C628.912903,480.612183 628.912903,467.725067 628.912903,454.641541 
	C626.476196,454.641541 624.725098,454.641541 622.752930,454.641541 
	C622.752930,474.359619 622.752930,493.824829 622.752930,513.175537 
	C627.415222,514.479614 629.305115,513.134399 628.982178,508.442230 
	C628.663635,503.814789 628.912781,499.148224 628.912903,493.499329 
M906.160095,495.499512 
	C906.160095,489.413055 906.160095,483.326569 906.160095,476.962280 
	C903.691223,477.081757 901.965698,477.165253 900.253906,477.248077 
	C900.253906,489.482635 900.253906,501.221497 900.253906,513.167480 
	C902.244629,513.167480 903.976624,513.167480 906.160156,513.167480 
	C906.160156,507.411194 906.160156,501.954773 906.160095,495.499512 
M902.025085,458.508667 
	C901.045166,460.497894 899.636292,462.427368 899.345764,464.512665 
	C899.258179,465.141113 902.444702,467.082092 903.827881,466.819946 
	C905.232666,466.553741 907.085266,464.415924 907.279785,462.909027 
	C907.645386,460.076721 905.679932,458.421844 902.025085,458.508667 
M567.653931,464.138153 
	C568.341980,460.950043 566.828064,458.763702 563.889526,458.499420 
	C562.436707,458.368744 559.990112,459.900452 559.490112,461.239136 
	C559.003784,462.541290 560.191833,465.837585 561.064392,465.999725 
	C563.008667,466.361084 565.214966,465.312897 567.653931,464.138153 
M763.115601,539.486694 
	C763.115601,541.079895 763.115601,542.673157 763.115601,543.650879 
	C765.599915,543.650879 767.647156,543.650879 769.716553,543.650879 
	C769.716553,542.298340 769.716553,540.589844 769.716553,539.216736 
	C767.273376,539.097290 765.363770,539.003967 763.115601,539.486694 
M838.781738,540.712158 
	C838.143921,539.706421 837.506104,538.700623 836.868347,537.694885 
	C836.447144,545.170288 836.447144,545.170288 838.058533,545.386658 
	C838.191345,544.018738 838.324158,542.650818 838.781738,540.712158 
M656.923462,541.056763 
	C656.063782,542.506775 655.204102,543.956787 654.447937,545.232300 
	C658.565308,544.546570 658.565308,544.546570 656.923462,541.056763 
M654.066895,538.767456 
	C653.844482,538.969910 653.603271,539.156250 653.409302,539.383057 
	C653.337097,539.467407 653.375305,539.646301 653.363159,539.782043 
	C654.533936,539.782043 655.704651,539.782043 656.875427,539.782043 
	C656.906311,539.504395 656.937134,539.226746 656.968018,538.949097 
	C656.187317,538.774414 655.406616,538.599792 654.066895,538.767456 
M908.535706,543.629211 
	C908.406433,543.167114 908.277161,542.705017 908.147888,542.242920 
	C907.930237,542.367737 907.712646,542.492554 907.494995,542.617310 
	C907.690308,542.858826 907.885620,543.100342 908.535706,543.629211 
M652.502930,541.171509 
	C652.439392,541.545837 652.375793,541.920227 652.312256,542.294556 
	C652.508972,542.047791 652.705688,541.800964 652.502930,541.171509 
z"/>
<path fill="#9B9B9B" opacity="1.000000" stroke="none" 
	d="
M43.000000,1.000000 
	C124.687561,1.000000 206.375122,1.000000 288.611877,1.374114 
	C290.096252,4.697333 291.031403,7.646439 291.966583,10.595545 
	C291.507874,12.864701 291.788849,15.084862 292.021088,17.310108 
	C292.100830,18.073788 292.139343,18.858934 292.056885,19.619114 
	C291.816864,21.832073 291.506104,24.037367 291.223053,26.245667 
	C291.586304,28.469074 291.121002,30.577341 291.484253,32.531605 
	C292.005798,35.337395 293.707886,37.995071 293.881042,40.779709 
	C294.262695,46.917442 293.876404,53.098633 294.050995,59.255074 
	C294.162628,63.190960 293.535461,67.847954 295.395569,70.842270 
	C297.357147,73.999901 298.016113,75.817848 296.416992,77.272690 
	C297.691742,85.094406 298.795868,91.869194 300.025818,99.416008 
	C298.635376,100.942764 297.321381,103.170006 300.406219,105.800034 
	C301.252136,106.521217 301.072876,108.512657 301.252563,109.935272 
	C301.890869,114.988983 301.289764,120.661987 303.475189,124.907784 
	C305.153931,128.169281 305.736816,129.916351 303.591400,132.090637 
	C304.965240,137.634445 310.000732,142.018814 306.546051,148.131775 
	C306.258514,148.640610 307.231689,149.830231 307.560303,150.725143 
	C308.389221,152.982605 310.212341,155.464981 309.796234,157.476425 
	C308.653351,163.001450 314.813812,167.432373 311.721008,173.044373 
	C311.577240,173.305267 312.633270,174.057861 312.734467,174.649261 
	C313.854614,181.192947 319.327332,186.416138 318.184326,193.767899 
	C317.857758,195.868332 320.981323,199.049622 320.204529,200.440674 
	C316.982605,206.210358 322.615692,209.535934 323.364319,214.148315 
	C324.527893,221.317139 327.490997,228.178284 329.405457,235.247269 
	C330.408112,238.949448 330.602417,242.866150 331.529083,246.594666 
	C332.387085,250.046844 333.734802,253.377289 334.866150,256.761597 
	C335.545929,258.795258 336.207031,260.835327 336.906708,262.862122 
	C338.592712,267.746216 341.567810,272.595306 341.679565,277.511749 
	C341.827972,284.039856 345.642059,288.783478 347.545074,294.359558 
	C349.768188,300.873596 354.297089,306.593231 356.589203,313.093506 
	C358.400360,318.229950 358.216492,323.810974 361.566681,328.822998 
	C364.646606,333.430634 365.932343,339.237579 368.243958,345.114838 
	C367.920654,345.676147 367.205322,346.918060 366.274780,348.533630 
	C367.567200,349.334198 368.565857,350.314728 369.736877,350.608612 
	C372.914795,351.406219 374.511017,353.606873 373.868958,356.466156 
	C372.423523,362.903168 377.059448,367.332947 378.959625,372.524780 
	C381.704559,380.024689 386.037170,386.950562 389.788055,394.070953 
	C390.922760,396.225006 392.645325,398.091217 393.630493,400.298218 
	C396.784698,407.364441 398.681183,415.244354 402.983917,421.486115 
	C409.334869,430.699066 411.594940,442.259674 420.148804,450.167603 
	C421.645660,451.551453 421.280731,454.834259 422.064270,457.142029 
	C422.660034,458.896606 423.407013,461.650116 424.614777,461.970856 
	C430.956360,463.655090 430.607910,470.123840 433.694031,474.049652 
	C436.965698,478.211487 438.995209,483.349823 441.519592,488.458374 
	C438.879333,503.107910 444.388397,512.072937 457.213593,514.771118 
	C460.150116,519.074829 463.030792,523.012146 465.947296,526.922791 
	C466.231049,527.303223 466.831635,527.444824 467.123352,527.822266 
	C469.473999,530.864380 472.401184,533.661255 473.929688,537.079773 
	C475.345154,540.245483 482.204254,540.604370 478.771027,546.254639 
	C478.643219,546.465027 479.621307,547.727356 480.281891,547.977966 
	C486.767242,550.438477 488.364777,557.503784 493.201172,561.534851 
	C500.018402,567.216919 499.367065,578.582153 508.839203,582.368774 
	C509.300323,582.553101 509.340302,583.609192 509.777405,584.067688 
	C511.385284,585.754272 513.066223,587.372192 514.743469,588.991272 
	C515.661682,589.877686 516.817810,590.579407 517.541260,591.595947 
	C522.254333,598.218018 526.502991,605.210449 531.635376,611.483032 
	C536.893066,617.908691 542.994141,623.643433 548.702332,629.703064 
	C549.143127,630.171021 549.328186,630.873169 549.746887,631.369812 
	C553.368286,635.665833 556.982727,639.969055 560.696655,644.184265 
	C561.180664,644.733521 562.310303,644.660217 562.975769,645.116211 
	C563.894897,645.746033 565.180786,646.481995 565.392883,647.387329 
	C566.177246,650.734863 568.219299,652.420227 571.395813,653.335266 
	C572.309143,653.598450 572.878296,654.972168 573.663879,655.779602 
	C575.393250,657.557129 577.157532,659.300781 578.912537,661.053284 
	C579.816162,661.955627 580.738159,662.839600 581.638184,663.745483 
	C583.386658,665.505249 585.118530,667.281311 586.871094,669.036865 
	C587.773010,669.940369 588.720886,670.798035 589.619141,671.705017 
	C591.365112,673.467773 593.079407,675.261963 594.829529,677.020508 
	C595.729675,677.925110 596.703674,678.756409 597.600159,679.664368 
	C599.343689,681.430298 601.056152,683.226807 602.781494,685.010681 
	C603.773193,686.036072 604.750793,687.075500 605.759583,688.083801 
	C607.408447,689.731873 609.053101,691.385681 610.748718,692.984802 
	C611.566589,693.756104 613.031677,694.252625 613.290039,695.139709 
	C615.156128,701.546204 622.314514,702.437866 625.733643,707.573425 
	C630.082214,714.105103 639.879761,715.084290 643.433472,723.036682 
	C643.608337,723.427917 644.202759,723.646729 644.623840,723.910706 
	C649.765564,727.134705 654.937500,730.311829 660.027954,733.614685 
	C660.787781,734.107666 661.097961,735.245667 661.738953,735.977722 
	C665.145874,739.868835 668.585815,743.731201 672.041199,747.579346 
	C672.230957,747.790710 672.700806,747.722107 672.975464,747.889893 
	C679.214783,751.701355 685.449524,755.520264 691.666260,759.368408 
	C692.069580,759.618164 692.266296,760.183655 692.651367,760.484009 
	C694.569153,761.980042 696.525085,763.427246 698.452759,764.910828 
	C699.466736,765.691101 700.645935,766.359314 701.407898,767.343506 
	C703.055603,769.471680 704.482666,771.770813 706.000000,774.000000 
	C587.312439,774.000000 468.624878,774.000000 349.331787,773.695557 
	C345.894165,770.468323 343.349152,767.171631 340.155151,764.720520 
	C336.428070,761.860474 335.459503,757.025330 330.744446,754.365173 
	C327.897003,752.758606 326.222992,747.517090 321.787842,746.041687 
	C321.469482,745.935791 321.411713,745.158630 321.152588,744.743774 
	C319.892212,742.725891 318.586060,740.736633 317.330750,738.715698 
	C315.215912,735.310913 311.815369,732.636597 309.865753,729.589539 
	C306.418732,724.202148 305.032562,717.536133 298.266113,714.722656 
	C297.775360,714.518616 297.580139,713.639526 297.212189,713.098328 
	C295.516724,710.604736 293.915588,708.037170 292.077087,705.653076 
	C289.973022,702.924683 287.030273,700.666809 285.562012,697.662048 
	C282.753357,691.914185 281.555359,685.185181 274.348358,682.775940 
	C273.859894,682.612610 273.553162,681.761475 273.259766,681.180847 
	C269.138733,673.025330 265.646515,664.452820 258.091827,658.596375 
	C257.727448,658.313843 257.559326,657.774109 257.309631,657.348389 
	C254.543076,652.630737 251.726196,647.941467 249.037033,643.180115 
	C247.833359,641.048889 247.454636,637.640625 245.719177,636.769897 
	C240.062729,633.931946 239.508026,627.928040 236.450485,623.554016 
	C234.050339,620.120483 233.291183,614.013855 230.312759,612.823364 
	C223.812439,610.225281 224.106155,604.096680 221.123978,599.832214 
	C218.838638,596.564270 217.677109,592.524536 215.894363,588.887573 
	C213.612930,584.233215 211.264053,579.609558 208.822998,575.037415 
	C208.160751,573.797058 207.256897,572.125854 206.128098,571.793640 
	C201.805679,570.521729 200.923965,567.141113 200.059189,563.464233 
	C199.501434,561.092651 199.049713,557.276184 197.620361,556.778442 
	C191.824097,554.760254 192.348999,548.786499 189.469696,545.042297 
	C185.480072,539.854248 182.979950,533.509521 179.935394,527.611877 
	C178.769135,525.352722 177.676712,523.021606 176.879120,520.614380 
	C175.838058,517.472473 176.032562,512.275452 174.102280,511.373962 
	C167.597916,508.336182 169.092453,502.232788 167.106491,497.509033 
	C166.573975,496.242371 165.558746,495.176605 164.752136,494.027679 
	C163.443787,492.163879 161.657669,490.475189 160.916534,488.409943 
	C159.719360,485.073944 159.452103,481.409668 158.319199,478.043182 
	C157.558884,475.783905 155.795242,473.882996 154.807007,471.675568 
	C152.415344,466.333221 150.363907,460.835632 147.887131,455.535309 
	C146.102173,451.715485 143.787994,448.146637 141.831390,444.402344 
	C140.178802,441.239838 138.444427,438.081940 137.199097,434.752655 
	C134.614304,427.842407 132.288727,420.833557 129.946732,413.835083 
	C129.216873,411.654114 129.301834,409.033936 128.109375,407.204315 
	C123.858231,400.681580 120.463898,393.969879 120.285393,385.963531 
	C120.257599,384.717133 119.482460,383.473480 118.990631,382.253662 
	C116.269798,375.505890 111.510780,369.466400 111.925598,361.621674 
	C111.974808,360.690796 111.600281,359.646515 111.154556,358.794891 
	C107.647148,352.093414 103.815117,345.523499 103.933586,337.575745 
	C103.947830,336.620850 103.689392,335.550018 103.225700,334.717682 
	C99.770401,328.515442 96.468109,322.327393 96.381660,314.902344 
	C96.360435,313.078796 95.001144,311.283997 94.320595,309.452362 
	C92.528885,304.630157 90.413193,299.890503 89.094444,294.940063 
	C87.528412,289.061310 86.862854,282.947449 85.425972,277.028015 
	C84.238708,272.136932 82.268036,267.437317 81.053680,262.551178 
	C79.146797,254.878540 77.587120,247.119675 75.865593,239.400635 
	C75.795464,239.086182 75.520203,238.820572 75.432129,238.506531 
	C74.610107,235.575500 73.555206,232.681046 73.056976,229.694382 
	C72.215195,224.648254 72.111198,219.457855 71.005219,214.481888 
	C69.313965,206.872681 66.585358,199.480545 65.115807,191.838837 
	C63.168987,181.715302 62.039200,171.435730 60.474384,161.236099 
	C60.304638,160.129669 59.479595,159.139999 59.133816,158.041031 
	C58.364002,155.594345 56.907013,153.036026 57.135525,150.658264 
	C58.297585,138.566406 54.552841,127.163879 52.735577,115.495918 
	C52.637054,114.863335 52.065269,114.298569 51.990372,113.669319 
	C51.774300,111.854065 51.671886,110.023430 51.575470,108.196167 
	C51.360027,104.113197 51.365295,100.007202 50.908546,95.952499 
	C50.623428,93.421432 49.188118,90.986847 49.081161,88.474396 
	C48.564953,76.347725 48.346027,64.208618 47.954502,52.076088 
	C47.912815,50.784405 47.466499,49.498650 47.150391,48.224407 
	C46.453316,45.414436 45.264404,42.643330 45.078777,39.803890 
	C44.233826,26.879200 43.666908,13.936332 43.000000,1.000000 
M314.473602,494.924530 
	C309.886353,484.081970 305.433472,473.178619 300.582336,462.455475 
	C299.753235,460.622803 297.426086,458.988617 295.429260,458.275238 
	C292.391022,457.189819 291.695068,460.082458 290.772675,462.182404 
	C287.437408,469.775513 284.094574,477.365295 280.766205,484.961456 
	C276.725037,494.184357 272.695648,503.412445 268.537659,512.920715 
	C272.972656,514.218140 276.210632,514.046265 277.721100,509.085480 
	C278.635315,506.082825 280.060760,503.235840 281.377777,500.023071 
	C287.650513,500.023071 293.963684,500.023102 300.276855,500.023071 
	C309.245667,500.023010 309.687256,499.879456 312.450531,508.380768 
	C314.127197,513.539185 316.847321,514.363464 321.896210,512.959961 
	C319.514404,507.122528 317.165497,501.365601 314.473602,494.924530 
M431.180450,497.617676 
	C431.123779,494.622253 431.200500,491.617218 430.984894,488.633301 
	C430.394409,480.461426 424.854523,475.404358 416.685974,476.244934 
	C413.087769,476.615204 409.639648,478.444092 405.523712,479.809723 
	C405.523712,473.041351 405.543243,466.277893 405.517548,459.514557 
	C405.496765,454.041138 404.819214,453.608734 399.526733,455.417969 
	C399.526733,474.691467 399.526733,493.919495 399.526733,513.101868 
	C405.486786,513.732239 405.440460,513.731445 405.537231,508.261627 
	C405.637207,502.611084 405.423981,496.911591 406.105591,491.325989 
	C406.905182,484.773468 411.347412,481.417511 417.343140,481.878448 
	C422.742584,482.293518 424.932709,485.318207 424.980927,492.601776 
	C425.025848,499.385437 424.990509,506.169617 424.990509,513.227905 
	C427.212555,513.227905 428.949707,513.227905 431.180359,513.227905 
	C431.180359,508.178741 431.180359,503.380859 431.180450,497.617676 
M348.867004,508.179016 
	C340.327789,509.920898 334.409698,505.862915 333.793976,497.196838 
	C343.209717,497.196838 352.604126,497.196838 361.923492,497.196838 
	C362.740875,485.632599 358.058014,478.281708 349.222656,476.504578 
	C339.562073,474.561432 330.234009,479.766907 327.418091,488.672485 
	C324.375641,498.294556 328.316467,508.569611 336.586060,512.576416 
	C344.942474,516.625244 355.754700,513.967712 360.552338,506.413177 
	C359.301819,505.493103 358.030609,504.557831 357.069366,503.850586 
	C354.295227,505.420837 352.000427,506.719757 348.867004,508.179016 
M375.080017,505.030457 
	C376.625153,513.074341 379.309998,515.064270 387.424286,514.180115 
	C392.317780,513.646851 392.443298,513.457214 391.296326,508.327454 
	C383.766022,509.198975 381.623169,508.488464 381.339081,503.830658 
	C380.907959,496.761932 381.226349,489.647491 381.226349,482.393982 
	C384.888336,482.230164 388.162140,482.083679 391.509979,481.933899 
	C391.509979,480.188538 391.509979,478.789917 391.509979,476.930115 
	C387.954346,476.930115 384.698120,476.930115 380.990479,476.930115 
	C380.990479,473.406403 380.990479,470.324463 380.990479,467.130127 
	C378.762604,467.130127 377.000977,467.130127 374.794312,467.130127 
	C374.794312,470.513733 374.794312,473.605927 374.794312,477.038940 
	C372.071808,477.038940 369.789124,477.038940 367.364319,477.038940 
	C367.364319,478.907745 367.364319,480.416870 367.364319,481.970276 
	C370.014252,482.133667 372.313019,482.275452 375.010223,482.441772 
	C375.010223,489.847931 375.010223,496.986359 375.080017,505.030457 
M238.974380,463.687805 
	C238.974380,467.982483 238.974380,472.277130 238.974380,476.618042 
	C241.169373,476.618042 242.855911,476.618042 244.468781,476.618042 
	C244.468781,470.311096 244.468781,464.407166 244.468781,458.146362 
	C242.479706,458.247498 240.912048,458.327209 239.180206,458.415283 
	C239.098846,460.128906 239.036697,461.437714 238.974380,463.687805 
M255.329224,458.365753 
	C253.885468,458.298553 252.441711,458.231323 250.718842,458.151123 
	C250.718842,464.596313 250.718842,470.629181 250.718842,477.032959 
	C252.621872,476.943420 254.173721,476.870422 255.858490,476.791138 
	C255.858490,470.618896 255.858490,464.852264 255.329224,458.365753 
M466.671844,543.800903 
	C468.112732,544.024719 470.484619,544.860474 470.816620,544.355408 
	C471.740784,542.949402 471.818146,540.986755 472.229919,539.243958 
	C471.783325,539.170532 471.336731,539.097107 470.890106,539.023682 
	C470.337402,540.377869 469.784698,541.731995 469.038269,543.560791 
	C468.260895,541.541138 467.737976,540.182617 467.215088,538.824097 
	C466.843781,538.907288 466.472473,538.990479 466.101166,539.073669 
	C466.164703,540.425293 466.228241,541.776917 466.671844,543.800903 
z"/>
<path fill="#A4A4A4" opacity="1.000000" stroke="none" 
	d="
M1236.000000,567.531372 
	C1218.960938,565.603699 1201.862549,563.559692 1184.901489,560.700317 
	C1171.168335,558.385132 1157.484863,555.547119 1143.982422,552.137146 
	C1111.699219,543.984131 1080.107910,533.625732 1049.769287,519.819580 
	C1033.455688,512.395752 1017.512207,504.159058 1001.384155,496.325317 
	C1000.208374,495.754150 998.889587,495.477203 997.160461,494.609650 
	C996.644348,493.161926 996.632080,492.166107 996.561523,491.174438 
	C996.148376,485.370544 995.081665,479.695953 988.969727,477.242981 
	C982.592957,474.683655 976.631287,475.868988 971.591614,480.785553 
	C971.449707,480.923889 971.018982,480.766083 970.478210,480.730133 
	C970.251709,479.578064 970.012085,478.359070 969.762878,477.091766 
	C967.959473,477.000854 966.481628,476.926361 965.003845,476.851837 
	C960.750732,473.291748 956.659424,469.514099 952.215698,466.210449 
	C935.812561,454.015564 918.866211,442.510834 902.919983,429.751892 
	C880.553467,411.856140 859.818542,392.062958 841.003357,370.443695 
	C826.502747,353.781952 812.171082,336.893280 798.948730,319.219360 
	C782.822449,297.663818 767.623108,275.356049 755.817261,251.024597 
	C744.283630,227.254395 732.366760,203.626785 722.018311,179.339996 
	C714.930481,162.705627 709.419495,145.272034 704.682678,127.794876 
	C698.511292,105.024216 692.979370,82.007919 688.726501,58.812355 
	C685.290100,40.069843 684.154663,20.905436 681.999268,1.464092 
	C761.354248,1.000000 840.708435,1.000000 920.531372,1.446807 
	C922.968201,14.327887 924.935059,26.762365 926.905640,39.196262 
	C927.365784,42.099995 927.484253,45.115070 928.369995,47.883759 
	C931.395447,57.340969 934.574219,66.753532 937.914490,76.104546 
	C942.687073,89.464890 946.960083,103.067436 952.758118,115.977440 
	C957.346619,126.194397 963.858398,135.554855 969.607544,145.241394 
	C976.082581,156.150894 982.373169,167.187241 989.310059,177.798309 
	C992.982056,183.415146 997.840027,188.259567 1002.190186,193.429489 
	C1009.759949,202.425827 1016.930359,211.807907 1025.054199,220.274002 
	C1032.840332,228.388123 1041.569214,235.607239 1050.009888,243.077225 
	C1052.206055,245.020950 1055.037476,246.236862 1057.290894,248.128067 
	C1062.714966,252.680099 1067.585449,257.991058 1073.377197,261.983551 
	C1083.541992,268.990509 1094.005737,275.635590 1104.755371,281.703796 
	C1117.475342,288.884186 1130.371948,295.867462 1143.674438,301.866394 
	C1155.766846,307.319641 1168.388916,311.691010 1180.997192,315.877747 
	C1190.880737,319.159698 1201.046631,321.653412 1211.186646,324.081055 
	C1219.380737,326.042786 1227.723267,327.383698 1236.000000,329.000000 
	C1236.000000,408.354218 1236.000000,487.708466 1236.000000,567.531372 
M1031.035156,466.544708 
	C1031.035156,463.808655 1031.035156,461.072632 1031.035156,458.018921 
	C1028.669678,458.216431 1027.102661,458.347260 1025.388306,458.490387 
	C1025.388306,464.781952 1025.388306,470.654297 1025.388306,476.697266 
	C1027.345459,476.697266 1029.032227,476.697266 1031.035156,476.697266 
	C1031.035156,473.418243 1031.035156,470.465759 1031.035156,466.544708 
M1019.553284,474.968384 
	C1019.553284,469.550385 1019.553284,464.132385 1019.553284,458.425964 
	C1017.451355,458.425964 1015.921631,458.425964 1014.253662,458.425964 
	C1014.253662,464.741852 1014.253662,470.776245 1014.253662,477.606537 
	C1016.297424,476.918152 1017.865417,476.390015 1019.553284,474.968384 
z"/>
<path fill="#979797" opacity="1.000000" stroke="none" 
	d="
M42.531342,1.000000 
	C43.666908,13.936332 44.233826,26.879200 45.078777,39.803890 
	C45.264404,42.643330 46.453316,45.414436 47.150391,48.224407 
	C47.466499,49.498650 47.912815,50.784405 47.954502,52.076088 
	C48.346027,64.208618 48.564953,76.347725 49.081161,88.474396 
	C49.188118,90.986847 50.623428,93.421432 50.908546,95.952499 
	C51.365295,100.007202 51.360027,104.113197 51.575470,108.196167 
	C51.671886,110.023430 51.774300,111.854065 51.990372,113.669319 
	C52.065269,114.298569 52.637054,114.863335 52.735577,115.495918 
	C54.552841,127.163879 58.297585,138.566406 57.135525,150.658264 
	C56.907013,153.036026 58.364002,155.594345 59.133816,158.041031 
	C59.479595,159.139999 60.304638,160.129669 60.474384,161.236099 
	C62.039200,171.435730 63.168987,181.715302 65.115807,191.838837 
	C66.585358,199.480545 69.313965,206.872681 71.005219,214.481888 
	C72.111198,219.457855 72.215195,224.648254 73.056976,229.694382 
	C73.555206,232.681046 74.610107,235.575500 75.432129,238.506531 
	C75.520203,238.820572 75.795464,239.086182 75.865593,239.400635 
	C77.587120,247.119675 79.146797,254.878540 81.053680,262.551178 
	C82.268036,267.437317 84.238708,272.136932 85.425972,277.028015 
	C86.862854,282.947449 87.528412,289.061310 89.094444,294.940063 
	C90.413193,299.890503 92.528885,304.630157 94.320595,309.452362 
	C95.001144,311.283997 96.360435,313.078796 96.381660,314.902344 
	C96.468109,322.327393 99.770401,328.515442 103.225700,334.717682 
	C103.689392,335.550018 103.947830,336.620850 103.933586,337.575745 
	C103.815117,345.523499 107.647148,352.093414 111.154556,358.794891 
	C111.600281,359.646515 111.974808,360.690796 111.925598,361.621674 
	C111.510780,369.466400 116.269798,375.505890 118.990631,382.253662 
	C119.482460,383.473480 120.257599,384.717133 120.285393,385.963531 
	C120.463898,393.969879 123.858231,400.681580 128.109375,407.204315 
	C129.301834,409.033936 129.216873,411.654114 129.946732,413.835083 
	C132.288727,420.833557 134.614304,427.842407 137.199097,434.752655 
	C138.444427,438.081940 140.178802,441.239838 141.831390,444.402344 
	C143.787994,448.146637 146.102173,451.715485 147.887131,455.535309 
	C150.363907,460.835632 152.415344,466.333221 154.807007,471.675568 
	C155.795242,473.882996 157.558884,475.783905 158.319199,478.043182 
	C159.452103,481.409668 159.719360,485.073944 160.916534,488.409943 
	C161.657669,490.475189 163.443787,492.163879 164.752136,494.027679 
	C165.558746,495.176605 166.573975,496.242371 167.106491,497.509033 
	C169.092453,502.232788 167.597916,508.336182 174.102280,511.373962 
	C176.032562,512.275452 175.838058,517.472473 176.879120,520.614380 
	C177.676712,523.021606 178.769135,525.352722 179.935394,527.611877 
	C182.979950,533.509521 185.480072,539.854248 189.469696,545.042297 
	C192.348999,548.786499 191.824097,554.760254 197.620361,556.778442 
	C199.049713,557.276184 199.501434,561.092651 200.059189,563.464233 
	C200.923965,567.141113 201.805679,570.521729 206.128098,571.793640 
	C207.256897,572.125854 208.160751,573.797058 208.822998,575.037415 
	C211.264053,579.609558 213.612930,584.233215 215.894363,588.887573 
	C217.677109,592.524536 218.838638,596.564270 221.123978,599.832214 
	C224.106155,604.096680 223.812439,610.225281 230.312759,612.823364 
	C233.291183,614.013855 234.050339,620.120483 236.450485,623.554016 
	C239.508026,627.928040 240.062729,633.931946 245.719177,636.769897 
	C247.454636,637.640625 247.833359,641.048889 249.037033,643.180115 
	C251.726196,647.941467 254.543076,652.630737 257.309631,657.348389 
	C257.559326,657.774109 257.727448,658.313843 258.091827,658.596375 
	C265.646515,664.452820 269.138733,673.025330 273.259766,681.180847 
	C273.553162,681.761475 273.859894,682.612610 274.348358,682.775940 
	C281.555359,685.185181 282.753357,691.914185 285.562012,697.662048 
	C287.030273,700.666809 289.973022,702.924683 292.077087,705.653076 
	C293.915588,708.037170 295.516724,710.604736 297.212189,713.098328 
	C297.580139,713.639526 297.775360,714.518616 298.266113,714.722656 
	C305.032562,717.536133 306.418732,724.202148 309.865753,729.589539 
	C311.815369,732.636597 315.215912,735.310913 317.330750,738.715698 
	C318.586060,740.736633 319.892212,742.725891 321.152588,744.743774 
	C321.411713,745.158630 321.469482,745.935791 321.787842,746.041687 
	C326.222992,747.517090 327.897003,752.758606 330.744446,754.365173 
	C335.459503,757.025330 336.428070,761.860474 340.155151,764.720520 
	C343.349152,767.171631 345.894165,770.468323 348.863098,773.695557 
	C233.043625,774.000000 117.087257,774.000000 1.065442,774.000000 
	C1.065442,516.333313 1.065442,258.666656 1.071820,1.000000 
	C14.739693,1.000000 28.401188,1.000000 42.531342,1.000000 
z"/>
<path fill="#9E9E9E" opacity="1.000000" stroke="none" 
	d="
M441.567230,488.061676 
	C438.995209,483.349823 436.965698,478.211487 433.694031,474.049652 
	C430.607910,470.123840 430.956360,463.655090 424.614777,461.970856 
	C423.407013,461.650116 422.660034,458.896606 422.064270,457.142029 
	C421.280731,454.834259 421.645660,451.551453 420.148804,450.167603 
	C411.594940,442.259674 409.334869,430.699066 402.983917,421.486115 
	C398.681183,415.244354 396.784698,407.364441 393.630493,400.298218 
	C392.645325,398.091217 390.922760,396.225006 389.788055,394.070953 
	C386.037170,386.950562 381.704559,380.024689 378.959625,372.524780 
	C377.059448,367.332947 372.423523,362.903168 373.868958,356.466156 
	C374.511017,353.606873 372.914795,351.406219 369.736877,350.608612 
	C368.565857,350.314728 367.567200,349.334198 366.274780,348.533630 
	C367.205322,346.918060 367.920654,345.676147 368.243958,345.114838 
	C365.932343,339.237579 364.646606,333.430634 361.566681,328.822998 
	C358.216492,323.810974 358.400360,318.229950 356.589203,313.093506 
	C354.297089,306.593231 349.768188,300.873596 347.545074,294.359558 
	C345.642059,288.783478 341.827972,284.039856 341.679565,277.511749 
	C341.567810,272.595306 338.592712,267.746216 336.906708,262.862122 
	C336.207031,260.835327 335.545929,258.795258 334.866150,256.761597 
	C333.734802,253.377289 332.387085,250.046844 331.529083,246.594666 
	C330.602417,242.866150 330.408112,238.949448 329.405457,235.247269 
	C327.490997,228.178284 324.527893,221.317139 323.364319,214.148315 
	C322.615692,209.535934 316.982605,206.210358 320.204529,200.440674 
	C320.981323,199.049622 317.857758,195.868332 318.184326,193.767899 
	C319.327332,186.416138 313.854614,181.192947 312.734467,174.649261 
	C312.633270,174.057861 311.577240,173.305267 311.721008,173.044373 
	C314.813812,167.432373 308.653351,163.001450 309.796234,157.476425 
	C310.212341,155.464981 308.389221,152.982605 307.560303,150.725143 
	C307.231689,149.830231 306.258514,148.640610 306.546051,148.131775 
	C310.000732,142.018814 304.965240,137.634445 303.591400,132.090637 
	C305.736816,129.916351 305.153931,128.169281 303.475189,124.907784 
	C301.289764,120.661987 301.890869,114.988983 301.252563,109.935272 
	C301.072876,108.512657 301.252136,106.521217 300.406219,105.800034 
	C297.321381,103.170006 298.635376,100.942764 300.025818,99.416008 
	C298.795868,91.869194 297.691742,85.094406 296.416992,77.272690 
	C298.016113,75.817848 297.357147,73.999901 295.395569,70.842270 
	C293.535461,67.847954 294.162628,63.190960 294.050995,59.255074 
	C293.876404,53.098633 294.262695,46.917442 293.881042,40.779709 
	C293.707886,37.995071 292.005798,35.337395 291.484253,32.531605 
	C291.121002,30.577341 291.586304,28.469074 291.223053,26.245667 
	C291.506104,24.037367 291.816864,21.832073 292.056885,19.619114 
	C292.139343,18.858934 292.100830,18.073788 292.021088,17.310108 
	C291.788849,15.084862 291.507874,12.864701 291.966583,10.595545 
	C291.031403,7.646439 290.096252,4.697333 289.080536,1.374114 
	C322.354218,1.000000 355.708466,1.000000 389.531342,1.000000 
	C391.334198,16.176136 392.586273,31.360165 394.043793,46.524448 
	C394.612854,52.445103 395.670959,58.317757 396.454956,64.219101 
	C396.974670,68.131569 397.387421,72.058121 397.875336,75.974976 
	C399.279083,87.243660 400.348022,98.568993 402.221527,109.759384 
	C403.665833,118.385979 406.189941,126.828239 408.105682,135.381210 
	C408.860291,138.750366 409.070465,142.244171 409.868408,145.600433 
	C412.279968,155.743835 414.842957,165.851425 417.375458,175.965820 
	C420.190002,187.206940 422.538818,198.595093 425.980621,209.641861 
	C431.635803,227.792572 437.941437,245.742737 444.105896,263.731842 
	C447.373627,273.267853 450.709320,282.791321 454.399353,292.168945 
	C458.582550,302.800018 462.973999,313.362152 467.678406,323.771942 
	C473.795441,337.307495 480.066925,350.785217 486.721191,364.062683 
	C493.476837,377.542419 500.502747,390.904327 507.919434,404.030151 
	C515.389282,417.250061 523.388794,430.175537 531.348633,443.111633 
	C535.213318,449.392517 539.517456,455.403107 543.716797,462.104004 
	C539.494873,469.357849 535.178772,476.043732 530.644043,483.068268 
	C526.534912,476.346008 522.596680,469.971924 518.728760,463.555481 
	C515.190308,457.685699 513.899536,457.133789 507.095215,459.013672 
	C511.467285,465.546875 515.989380,471.920929 520.097534,478.551483 
	C524.159668,485.107880 529.609802,491.107910 527.959045,500.011597 
	C527.169617,504.269348 527.823181,508.794647 527.823181,513.202698 
	C530.283264,513.202698 531.887207,513.202698 534.009033,513.202698 
	C534.009033,506.504761 533.948120,500.057434 534.049072,493.612640 
	C534.076599,491.858368 534.086670,489.787109 534.967896,488.416199 
	C539.456360,481.433807 544.228088,474.633514 548.900635,467.769470 
	C552.415649,472.768555 555.930603,477.767639 559.867859,483.343018 
	C560.290100,493.664703 560.290100,503.410065 560.290100,512.968445 
	C565.428589,514.653992 566.928894,512.899597 566.693542,508.417328 
	C566.477051,504.293793 566.819275,500.140930 566.915405,496.001007 
	C570.144226,499.425476 573.605469,502.662018 576.556763,506.311005 
	C584.249878,515.822754 591.698547,525.531799 599.309204,535.111084 
	C600.112915,536.122681 601.344727,536.794006 602.633667,538.240417 
	C602.641113,542.563354 602.582031,546.115845 608.032715,545.200378 
	C615.826660,554.198303 623.390991,563.408875 631.475281,572.137878 
	C640.688110,582.085266 650.114014,591.864746 659.901733,601.242920 
	C672.815125,613.616028 685.941345,625.789795 699.398682,637.566223 
	C713.582886,649.978638 727.943604,662.236084 742.827271,673.788147 
	C755.520630,683.640198 769.065552,692.395142 782.232910,701.636719 
	C787.541626,705.362732 792.703247,709.322266 798.186096,712.771301 
	C808.947815,719.540955 819.905518,725.998169 830.747253,732.641541 
	C837.520203,736.791565 844.091064,741.290588 851.001343,745.192505 
	C860.108826,750.335022 869.424011,755.115723 878.719971,759.916260 
	C884.893127,763.104126 891.256836,765.927734 897.380615,769.203491 
	C898.844971,769.986938 899.692688,771.923035 900.911987,773.664490 
	C836.312439,774.000000 771.624878,774.000000 706.468628,774.000000 
	C704.482666,771.770813 703.055603,769.471680 701.407898,767.343506 
	C700.645935,766.359314 699.466736,765.691101 698.452759,764.910828 
	C696.525085,763.427246 694.569153,761.980042 692.651367,760.484009 
	C692.266296,760.183655 692.069580,759.618164 691.666260,759.368408 
	C685.449524,755.520264 679.214783,751.701355 672.975464,747.889893 
	C672.700806,747.722107 672.230957,747.790710 672.041199,747.579346 
	C668.585815,743.731201 665.145874,739.868835 661.738953,735.977722 
	C661.097961,735.245667 660.787781,734.107666 660.027954,733.614685 
	C654.937500,730.311829 649.765564,727.134705 644.623840,723.910706 
	C644.202759,723.646729 643.608337,723.427917 643.433472,723.036682 
	C639.879761,715.084290 630.082214,714.105103 625.733643,707.573425 
	C622.314514,702.437866 615.156128,701.546204 613.290039,695.139709 
	C613.031677,694.252625 611.566589,693.756104 610.748718,692.984802 
	C609.053101,691.385681 607.408447,689.731873 605.759583,688.083801 
	C604.750793,687.075500 603.773193,686.036072 602.781494,685.010681 
	C601.056152,683.226807 599.343689,681.430298 597.600159,679.664368 
	C596.703674,678.756409 595.729675,677.925110 594.829529,677.020508 
	C593.079407,675.261963 591.365112,673.467773 589.619141,671.705017 
	C588.720886,670.798035 587.773010,669.940369 586.871094,669.036865 
	C585.118530,667.281311 583.386658,665.505249 581.638184,663.745483 
	C580.738159,662.839600 579.816162,661.955627 578.912537,661.053284 
	C577.157532,659.300781 575.393250,657.557129 573.663879,655.779602 
	C572.878296,654.972168 572.309143,653.598450 571.395813,653.335266 
	C568.219299,652.420227 566.177246,650.734863 565.392883,647.387329 
	C565.180786,646.481995 563.894897,645.746033 562.975769,645.116211 
	C562.310303,644.660217 561.180664,644.733521 560.696655,644.184265 
	C556.982727,639.969055 553.368286,635.665833 549.746887,631.369812 
	C549.328186,630.873169 549.143127,630.171021 548.702332,629.703064 
	C542.994141,623.643433 536.893066,617.908691 531.635376,611.483032 
	C526.502991,605.210449 522.254333,598.218018 517.541260,591.595947 
	C516.817810,590.579407 515.661682,589.877686 514.743469,588.991272 
	C513.066223,587.372192 511.385284,585.754272 509.777405,584.067688 
	C509.340302,583.609192 509.300323,582.553101 508.839203,582.368774 
	C499.367065,578.582153 500.018402,567.216919 493.201172,561.534851 
	C488.364777,557.503784 486.767242,550.438477 480.281891,547.977966 
	C479.621307,547.727356 478.643219,546.465027 478.771027,546.254639 
	C482.204254,540.604370 475.345154,540.245483 473.929688,537.079773 
	C472.401184,533.661255 469.473999,530.864380 467.123352,527.822266 
	C466.831635,527.444824 466.231049,527.303223 465.947296,526.922791 
	C463.030792,523.012146 460.150116,519.074829 457.607849,514.755859 
	C464.597351,514.408813 470.612671,513.091309 474.582520,507.211395 
	C472.618530,503.612549 470.826050,503.260132 467.846344,505.822784 
	C463.207825,509.811951 458.418213,509.769104 452.833191,506.084534 
	C451.664215,504.766510 450.495941,503.851440 449.203613,502.846680 
	C449.079529,502.756989 449.049164,502.452332 449.272919,502.121796 
	C450.003082,500.325378 450.509460,498.859467 451.476929,497.311890 
	C460.147858,497.230164 468.357697,497.230164 476.757599,497.230164 
	C476.302368,489.101593 475.352753,482.105225 467.997101,478.217163 
	C458.120331,472.996460 447.787872,476.884155 441.567230,488.061676 
M493.517426,540.213501 
	C493.191223,541.113403 492.865021,542.013245 492.538818,542.913086 
	C492.851074,543.003235 493.163300,543.093384 493.475555,543.183533 
	C493.682953,542.158691 493.890320,541.133789 494.699524,540.066162 
	C495.567566,539.963013 496.435608,539.859863 497.303619,539.756775 
	C497.200470,539.400391 497.097290,539.044006 496.994110,538.687683 
	C495.969482,539.095215 494.944824,539.502808 493.517426,540.213501 
M493.432220,478.975372 
	C491.158051,478.178864 488.883881,477.382355 486.289124,476.473572 
	C486.289124,489.353943 486.289124,501.229767 486.289124,513.137085 
	C488.385406,513.137085 490.116364,513.137085 492.183655,513.137085 
	C492.183655,507.956482 492.171753,503.143402 492.185974,498.330414 
	C492.222839,485.852051 493.779938,483.907562 505.999390,481.319244 
	C505.927307,479.773468 505.853119,478.183350 505.719971,475.328644 
	C501.494537,476.644440 497.868317,477.773651 493.432220,478.975372 
M528.283752,543.832825 
	C528.730042,544.356873 529.176331,544.880920 529.622681,545.404968 
	C529.925781,544.931213 530.228943,544.457458 530.532043,543.983643 
	C529.839539,543.757751 529.146973,543.531860 528.283752,543.832825 
M527.651184,540.408630 
	C527.873230,540.071899 528.095276,539.735107 528.317261,539.398315 
	C527.917969,539.274414 527.518738,539.150452 527.119446,539.026550 
	C527.170166,539.443115 527.220825,539.859619 527.651184,540.408630 
M541.148193,543.120056 
	C541.434326,543.224854 541.720520,543.329651 542.006653,543.434448 
	C542.025757,543.024658 542.044922,542.614868 542.064026,542.205078 
	C541.762024,542.382324 541.460083,542.559631 541.148193,543.120056 
M508.119507,539.131409 
	C507.880249,539.256775 507.641022,539.382202 507.401764,539.507568 
	C507.501373,539.606812 507.667542,539.805420 507.690369,539.790100 
	C507.940430,539.622498 508.168091,539.421570 508.119507,539.131409 
M497.911377,543.695496 
	C497.946320,543.893494 497.981262,544.091492 498.016174,544.289490 
	C498.063507,544.094543 498.110840,543.899658 497.911377,543.695496 
M571.932861,540.508301 
	C571.885315,540.300354 571.837708,540.092346 571.790222,539.884399 
	C571.752502,540.083252 571.714783,540.282104 571.932861,540.508301 
z"/>
<path fill="#AAAAAA" opacity="1.000000" stroke="none" 
	d="
M1236.000000,328.531342 
	C1227.723267,327.383698 1219.380737,326.042786 1211.186646,324.081055 
	C1201.046631,321.653412 1190.880737,319.159698 1180.997192,315.877747 
	C1168.388916,311.691010 1155.766846,307.319641 1143.674438,301.866394 
	C1130.371948,295.867462 1117.475342,288.884186 1104.755371,281.703796 
	C1094.005737,275.635590 1083.541992,268.990509 1073.377197,261.983551 
	C1067.585449,257.991058 1062.714966,252.680099 1057.290894,248.128067 
	C1055.037476,246.236862 1052.206055,245.020950 1050.009888,243.077225 
	C1041.569214,235.607239 1032.840332,228.388123 1025.054199,220.274002 
	C1016.930359,211.807907 1009.759949,202.425827 1002.190186,193.429489 
	C997.840027,188.259567 992.982056,183.415146 989.310059,177.798309 
	C982.373169,167.187241 976.082581,156.150894 969.607544,145.241394 
	C963.858398,135.554855 957.346619,126.194397 952.758118,115.977440 
	C946.960083,103.067436 942.687073,89.464890 937.914490,76.104546 
	C934.574219,66.753532 931.395447,57.340969 928.369995,47.883759 
	C927.484253,45.115070 927.365784,42.099995 926.905640,39.196262 
	C924.935059,26.762365 922.968201,14.327887 921.000000,1.446807 
	C1025.928467,1.000000 1130.857056,1.000000 1236.000000,1.000000 
	C1236.000000,110.020798 1236.000000,219.041748 1236.000000,328.531342 
z"/>
<path fill="#131313" opacity="1.000000" stroke="none" 
	d="
M572.827026,404.145752 
	C566.569702,397.452301 566.520081,388.907318 572.431274,381.118195 
	C576.181335,376.176788 586.206787,375.114319 593.243652,378.606323 
	C599.309570,372.524109 605.254150,366.563599 611.036377,360.765839 
	C608.054382,356.928833 603.855591,352.723602 601.159668,347.710205 
	C598.620056,342.987457 597.176941,337.504578 596.178589,332.182159 
	C595.484619,328.482483 594.769653,326.702515 590.497131,326.870514 
	C585.588745,327.063599 580.638062,325.959717 575.709961,325.996460 
	C574.031189,326.008942 571.797302,327.375275 570.798462,328.807434 
	C567.583496,333.417328 560.040161,337.096527 555.441589,335.760254 
	C548.870117,333.850708 544.012695,327.811584 543.994202,321.527924 
	C543.975281,315.114655 548.823242,308.652496 554.748108,307.193146 
	C560.722656,305.721619 568.615417,308.421631 570.737488,314.209412 
	C573.187744,320.892334 577.624451,320.800323 583.318848,321.199371 
	C591.759033,321.790741 597.401306,320.931458 600.233215,311.054657 
	C602.015015,304.840454 607.974121,299.824005 612.742065,293.341858 
	C608.550598,285.490356 603.723877,276.444214 598.889587,267.402161 
	C598.498413,266.670471 597.917053,266.013031 597.658325,265.242432 
	C596.136353,260.708801 593.814453,258.724030 588.292480,259.120728 
	C580.049072,259.712982 573.866028,253.769669 572.248962,245.682678 
	C570.807068,238.471771 575.238770,230.325119 582.209839,227.371948 
	C589.151917,224.431076 597.518616,226.643982 601.859375,232.569061 
	C606.873535,239.413361 606.802063,247.370544 601.286072,253.588623 
	C599.538696,255.558365 599.341736,256.960114 600.564758,259.203339 
	C606.444031,269.987274 612.175415,280.851868 618.143372,292.032623 
	C631.851074,285.824463 645.234680,286.744324 657.617920,294.762451 
	C670.007996,302.785065 675.429138,314.955322 675.592651,329.954224 
	C682.107849,330.979279 688.461914,332.127014 694.864014,332.847321 
	C695.992554,332.974243 697.689514,331.574646 698.496765,330.435547 
	C702.506226,324.777618 709.330994,322.350677 715.551208,324.630737 
	C721.326111,326.747498 725.077698,333.417511 724.170471,339.954865 
	C723.286865,346.322357 717.830139,351.376923 711.298645,351.877991 
	C705.009949,352.360382 698.716553,348.148315 697.071350,341.693909 
	C696.339844,338.823944 695.042603,338.068268 692.377808,337.778656 
	C686.777710,337.170013 681.218506,336.185730 676.106934,335.424774 
	C673.174255,340.970459 670.886047,346.513855 667.565552,351.348328 
	C657.598877,365.859711 638.326904,371.675201 622.062988,365.256500 
	C618.912292,364.013062 617.014282,364.378754 614.751404,366.851196 
	C610.368958,371.639465 605.697815,376.172974 600.998535,380.657196 
	C599.137146,382.433441 598.896240,383.756317 600.134705,386.196014 
	C603.811462,393.438904 601.125793,402.501282 594.342529,406.778564 
	C586.709167,411.591919 578.296265,411.156647 572.827026,404.145752 
M626.028748,350.661407 
	C626.975098,350.971741 627.912292,351.314392 628.869263,351.587494 
	C639.517395,354.626556 651.288208,350.018341 656.944031,340.606964 
	C662.487427,331.382660 660.871033,318.104492 653.289978,310.590363 
	C645.276550,302.647827 633.303833,301.295105 623.445435,306.698517 
	C607.284546,315.556305 606.186157,340.934906 626.028748,350.661407 
M590.492065,399.187531 
	C593.502197,396.375946 594.590149,392.711823 592.463501,389.376678 
	C591.064941,387.183350 588.111877,385.268280 585.535889,384.715546 
	C582.165100,383.992310 578.391907,385.601868 577.816284,389.335724 
	C577.345764,392.387634 577.780762,396.416595 579.507507,398.769928 
	C581.985962,402.147736 586.164307,401.919891 590.492065,399.187531 
M563.138916,314.141846 
	C555.783325,311.680695 549.815247,315.529846 550.762939,322.203430 
	C551.301514,325.995819 553.316528,328.723907 557.302063,329.349945 
	C561.046387,329.938049 564.218872,328.864044 566.073608,325.289062 
	C568.231567,321.129517 567.218567,317.602173 563.138916,314.141846 
M590.178223,234.830170 
	C583.566711,234.893005 579.513672,238.968597 580.822144,244.365601 
	C581.840271,248.564880 584.669189,250.995956 588.951660,250.903595 
	C592.953003,250.817261 595.885681,248.558624 596.691711,244.523651 
	C597.634033,239.806839 595.510986,236.579453 590.178223,234.830170 
M708.188049,344.269775 
	C710.721558,343.505371 713.928589,343.411957 715.572693,341.761566 
	C716.859680,340.469666 717.131531,336.731750 716.173767,335.022247 
	C715.110901,333.125305 712.079529,331.199158 710.016907,331.312744 
	C707.952087,331.426483 705.210205,333.642334 704.221191,335.652924 
	C702.578125,338.993225 704.140503,342.074921 708.188049,344.269775 
z"/>
<path fill="#131313" opacity="1.000000" stroke="none" 
	d="
M642.732422,482.843567 
	C651.254333,474.414307 656.320312,474.058105 670.906494,480.963226 
	C670.906494,472.188843 670.906494,463.659485 670.906494,454.839233 
	C673.177856,454.839233 674.894775,454.839233 676.894592,454.839233 
	C676.894592,474.169098 676.894592,493.242157 676.894592,512.763000 
	C675.122192,512.847717 673.385315,512.930725 671.328369,513.029053 
	C671.118652,511.397369 670.938843,509.998169 670.769409,508.680023 
	C659.070251,516.451111 648.067139,518.236511 640.317261,503.727112 
	C636.641418,496.845154 637.308167,489.501526 642.732422,482.843567 
M660.152771,481.935760 
	C653.815674,481.164825 649.137024,483.399384 646.535950,489.427704 
	C644.236755,494.756531 644.627136,499.821930 648.367188,504.327728 
	C652.035583,508.747162 657.910278,510.019653 663.279419,507.857361 
	C668.035461,505.941956 671.141052,500.578033 671.004089,494.515411 
	C670.861877,488.221161 667.695129,484.264404 660.152771,481.935760 
z"/>
<path fill="#1B1B1B" opacity="1.000000" stroke="none" 
	d="
M931.683411,476.426025 
	C947.982788,475.183044 958.184326,486.120850 954.560059,500.393768 
	C952.245728,509.507538 943.693604,515.197815 933.672424,514.291565 
	C923.990723,513.415955 917.140625,506.632629 916.170044,496.959808 
	C915.171753,487.012238 920.797913,479.413422 931.683411,476.426025 
M942.088318,507.095490 
	C942.893921,506.519348 943.792542,506.037811 944.489990,505.351685 
	C948.770935,501.140594 949.716736,493.055359 946.594177,487.825134 
	C943.803162,483.150238 937.179749,480.634064 931.831421,482.216858 
	C926.181702,483.888855 922.665710,489.380157 922.889221,496.182770 
	C923.201721,505.691223 931.709534,510.906464 942.088318,507.095490 
z"/>
<path fill="#131313" opacity="1.000000" stroke="none" 
	d="
M602.281250,506.339966 
	C605.283020,504.368988 607.987488,502.498260 609.949402,506.948822 
	C603.596802,515.192688 593.935791,517.141968 585.094971,512.026794 
	C577.568970,507.672333 573.943298,496.637299 577.296387,488.290863 
	C581.267944,478.404816 589.808655,474.297638 600.713196,477.029846 
	C608.417480,478.960205 613.006653,486.813446 612.039612,497.055878 
	C602.701538,497.055878 593.290039,497.055878 583.869141,497.055878 
	C584.302673,507.646271 593.201843,512.057068 602.281250,506.339966 
M585.703674,486.214691 
	C584.861084,487.928558 584.018494,489.642395 583.037598,491.637573 
	C591.040894,491.637573 598.379517,491.637573 605.785095,491.637573 
	C603.635925,481.255554 594.235474,478.535889 585.703674,486.214691 
z"/>
<path fill="#1F1F1F" opacity="1.000000" stroke="none" 
	d="
M964.686951,477.148682 
	C966.481628,476.926361 967.959473,477.000854 969.762878,477.091766 
	C970.012085,478.359070 970.251709,479.578064 970.478210,480.730133 
	C971.018982,480.766083 971.449707,480.923889 971.591614,480.785553 
	C976.631287,475.868988 982.592957,474.683655 988.969727,477.242981 
	C995.081665,479.695953 996.148376,485.370544 996.561523,491.174438 
	C996.632080,492.166107 996.644348,493.161926 996.783569,494.581360 
	C996.781738,499.472717 996.403076,503.954193 996.654846,508.399963 
	C996.913452,512.969116 995.293640,514.566895 989.913696,512.914978 
	C989.913696,505.037811 989.913696,496.829468 989.670715,487.855957 
	C986.785767,482.098419 984.400940,481.144043 978.315918,482.643890 
	C972.795532,483.993439 971.346497,488.381958 971.033020,493.147797 
	C970.674744,498.594727 970.821960,504.081482 970.911804,509.548309 
	C970.952881,512.050171 970.591675,513.664368 967.497131,513.622559 
	C964.577209,513.582947 964.401367,511.938263 964.406067,509.732025 
	C964.429199,498.969940 964.388306,488.207703 964.686951,477.148682 
z"/>
<path fill="#131313" opacity="1.000000" stroke="none" 
	d="
M548.935059,467.419128 
	C544.228088,474.633514 539.456360,481.433807 534.967896,488.416199 
	C534.086670,489.787109 534.076599,491.858368 534.049072,493.612640 
	C533.948120,500.057434 534.009033,506.504761 534.009033,513.202698 
	C531.887207,513.202698 530.283264,513.202698 527.823181,513.202698 
	C527.823181,508.794647 527.169617,504.269348 527.959045,500.011597 
	C529.609802,491.107910 524.159668,485.107880 520.097534,478.551483 
	C515.989380,471.920929 511.467285,465.546875 507.095215,459.013672 
	C513.899536,457.133789 515.190308,457.685699 518.728760,463.555481 
	C522.596680,469.971924 526.534912,476.346008 530.644043,483.068268 
	C535.178772,476.043732 539.494873,469.357849 543.959595,462.354309 
	C546.089966,457.475739 549.703308,457.640594 554.049316,458.576874 
	C552.237122,461.606293 550.603271,464.337524 548.935059,467.419128 
z"/>
<path fill="#131313" opacity="1.000000" stroke="none" 
	d="
M747.830750,489.013275 
	C747.830750,484.885742 747.830750,481.253967 747.830750,477.316406 
	C749.923584,477.316406 751.626892,477.316406 753.839661,477.316406 
	C753.839661,484.317108 753.778320,491.099426 753.856445,497.880157 
	C753.939270,505.067841 756.556152,508.479034 762.031921,508.802948 
	C767.934753,509.152130 772.538208,505.122711 772.950562,498.347290 
	C773.372314,491.417297 773.044006,484.441650 773.044006,477.249268 
	C775.541687,477.249268 777.147522,477.249268 779.291931,477.249268 
	C779.291931,489.124664 779.291931,500.960358 779.291931,513.219604 
	C777.771851,513.301147 776.187500,513.386108 774.338013,513.485352 
	C774.144531,511.719849 773.987061,510.283356 773.805115,508.622742 
	C773.383240,508.854156 772.948181,508.963623 772.711182,509.241791 
	C767.962402,514.814941 761.863892,515.620728 755.514709,513.255554 
	C749.406250,510.980042 747.698425,505.607513 747.820496,499.488708 
	C747.886841,496.163422 747.831360,492.835663 747.830750,489.013275 
z"/>
<path fill="#151515" opacity="1.000000" stroke="none" 
	d="
M797.177734,497.299194 
	C797.177612,502.753387 797.177612,507.741302 797.177612,513.113281 
	C795.130859,513.113281 793.402954,513.113281 791.272827,513.113281 
	C791.272827,501.230560 791.272827,489.343994 791.272827,477.228394 
	C792.749756,477.228394 794.192810,477.228394 795.938293,477.228394 
	C796.301575,478.507233 796.697205,479.900055 797.152954,481.504303 
	C797.535278,481.285889 797.937622,481.155762 798.203491,480.889374 
	C802.904663,476.178833 808.438049,474.816925 814.664978,477.116394 
	C820.866821,479.406586 822.797302,484.612946 822.933350,490.618225 
	C823.102173,498.066925 822.973816,505.522369 822.973816,513.196045 
	C820.758667,513.196045 819.019226,513.196045 816.825439,513.196045 
	C816.825439,506.436249 816.834229,499.969482 816.823242,493.502716 
	C816.809998,485.724701 814.460388,482.297180 808.913025,481.924438 
	C802.378967,481.485382 798.659363,484.852783 797.488953,492.359955 
	C797.259521,493.831360 797.275146,495.340973 797.177734,497.299194 
z"/>
<path fill="#131313" opacity="1.000000" stroke="none" 
	d="
M711.218994,513.062744 
	C708.407043,510.009369 705.971252,507.054871 703.388916,503.922577 
	C708.242004,501.585693 711.180481,501.318726 713.371826,506.311707 
	C714.066956,507.895477 718.724609,509.282990 720.556274,508.472290 
	C723.478516,507.178864 726.774597,504.360382 727.694336,501.478699 
	C729.008423,497.361786 728.431580,492.606781 728.465271,488.122803 
	C728.538757,478.327850 728.488037,468.531982 728.488037,458.456818 
	C730.719788,458.456818 732.483093,458.456818 735.002014,458.456818 
	C735.002014,460.323669 735.002014,462.253204 735.002014,464.182739 
	C735.001892,476.003326 734.881104,487.825500 735.038330,499.643982 
	C735.172424,509.724182 725.834534,519.127319 711.218994,513.062744 
z"/>
<path fill="#1B1B1B" opacity="1.000000" stroke="none" 
	d="
M841.887756,486.037659 
	C838.479431,491.347534 837.859619,496.639404 840.572571,501.927277 
	C844.557312,509.694214 852.489685,510.863800 860.621155,504.831787 
	C861.910156,505.908447 863.274170,507.047760 864.629761,508.179993 
	C858.972229,515.733582 846.345032,516.588989 838.893250,510.094238 
	C830.765991,503.010773 830.118774,489.164825 837.556030,481.487823 
	C844.756042,474.055756 857.698975,474.253876 864.685425,482.025055 
	C864.303528,482.512238 863.958679,483.079834 863.492554,483.518677 
	C862.653503,484.308807 861.741699,485.021759 860.889404,485.742279 
	C852.655701,480.496185 847.957581,480.509186 841.887756,486.037659 
z"/>
<path fill="#171717" opacity="1.000000" stroke="none" 
	d="
M875.148804,488.146667 
	C875.148804,486.043945 875.148804,484.420532 875.148804,482.513458 
	C872.415039,482.302338 870.152405,482.127625 867.499451,481.922760 
	C867.385620,480.483002 867.275391,479.089081 867.132690,477.284393 
	C869.854248,477.096283 872.254700,476.930359 874.933411,476.745209 
	C875.092712,473.449921 875.241455,470.373810 875.400696,467.080414 
	C877.339233,467.080414 878.933167,467.080414 881.089661,467.080414 
	C881.089661,470.258423 881.089661,473.325287 881.089661,476.853638 
	C884.877258,476.853638 888.121277,476.853638 891.703247,476.853638 
	C891.812622,478.695343 891.895447,480.089813 892.004089,481.918274 
	C888.476868,482.084137 885.232910,482.236694 881.660889,482.404663 
	C881.660889,489.963318 881.017578,497.426086 881.864319,504.715790 
	C882.542419,510.553406 887.678345,508.558777 891.664062,508.135071 
	C893.003296,511.973724 892.000854,513.886475 887.609985,514.244629 
	C878.901550,514.954895 875.328369,511.948853 875.165771,503.087860 
	C875.077393,498.268707 875.149292,493.446655 875.148804,488.146667 
z"/>
<path fill="#222222" opacity="1.000000" stroke="none" 
	d="
M628.912903,493.999084 
	C628.912781,499.148224 628.663635,503.814789 628.982178,508.442230 
	C629.305115,513.134399 627.415222,514.479614 622.752930,513.175537 
	C622.752930,493.824829 622.752930,474.359619 622.752930,454.641541 
	C624.725098,454.641541 626.476196,454.641541 628.912903,454.641541 
	C628.912903,467.725067 628.912903,480.612183 628.912903,493.999084 
z"/>
<path fill="#222222" opacity="1.000000" stroke="none" 
	d="
M566.814941,495.541626 
	C566.819275,500.140930 566.477051,504.293793 566.693542,508.417328 
	C566.928894,512.899597 565.428589,514.653992 560.290100,512.968445 
	C560.290100,503.410065 560.290100,493.664703 560.187439,483.460144 
	C560.269714,481.206482 560.454712,479.411987 560.673462,477.289124 
	C562.521301,477.289124 564.246277,477.289124 566.714478,477.289124 
	C566.714478,483.238708 566.714478,489.160492 566.814941,495.541626 
z"/>
<path fill="#131313" opacity="1.000000" stroke="none" 
	d="
M906.160156,495.998932 
	C906.160156,501.954773 906.160156,507.411194 906.160156,513.167480 
	C903.976624,513.167480 902.244629,513.167480 900.253906,513.167480 
	C900.253906,501.221497 900.253906,489.482635 900.253906,477.248077 
	C901.965698,477.165253 903.691223,477.081757 906.160095,476.962280 
	C906.160095,483.326569 906.160095,489.413055 906.160156,495.998932 
z"/>
<path fill="#1B1B1B" opacity="1.000000" stroke="none" 
	d="
M902.366211,458.408020 
	C905.679932,458.421844 907.645386,460.076721 907.279785,462.909027 
	C907.085266,464.415924 905.232666,466.553741 903.827881,466.819946 
	C902.444702,467.082092 899.258179,465.141113 899.345764,464.512665 
	C899.636292,462.427368 901.045166,460.497894 902.366211,458.408020 
z"/>
<path fill="#1F1F1F" opacity="1.000000" stroke="none" 
	d="
M567.484192,464.488647 
	C565.214966,465.312897 563.008667,466.361084 561.064392,465.999725 
	C560.191833,465.837585 559.003784,462.541290 559.490112,461.239136 
	C559.990112,459.900452 562.436707,458.368744 563.889526,458.499420 
	C566.828064,458.763702 568.341980,460.950043 567.484192,464.488647 
z"/>
<path fill="#737373" opacity="1.000000" stroke="none" 
	d="
M608.199829,544.843384 
	C602.582031,546.115845 602.641113,542.563354 602.910156,538.418457 
	C608.790527,538.221863 609.760986,539.383606 608.199829,544.843384 
z"/>
<path fill="#737373" opacity="1.000000" stroke="none" 
	d="
M763.284851,539.198608 
	C765.363770,539.003967 767.273376,539.097290 769.716553,539.216736 
	C769.716553,540.589844 769.716553,542.298340 769.716553,543.650879 
	C767.647156,543.650879 765.599915,543.650879 763.115601,543.650879 
	C763.115601,542.673157 763.115601,541.079895 763.284851,539.198608 
z"/>
<path fill="#A4A4A4" opacity="1.000000" stroke="none" 
	d="
M978.654663,482.854858 
	C984.400940,481.144043 986.785767,482.098419 989.547058,487.453369 
	C986.108704,486.232635 982.551025,484.649231 978.654663,482.854858 
z"/>
<path fill="#737373" opacity="1.000000" stroke="none" 
	d="
M838.619385,540.997559 
	C838.324158,542.650818 838.191345,544.018738 838.058350,545.386597 
	C836.447144,545.170288 836.447144,545.170288 836.868347,537.694885 
	C837.506104,538.700623 838.143921,539.706421 838.619385,540.997559 
z"/>
<path fill="#222222" opacity="1.000000" stroke="none" 
	d="
M657.245972,541.051941 
	C658.565308,544.546570 658.565308,544.546570 654.447937,545.232300 
	C655.204102,543.956787 656.063782,542.506775 657.245972,541.051941 
z"/>
<path fill="#222222" opacity="1.000000" stroke="none" 
	d="
M654.346436,538.596313 
	C655.406616,538.599792 656.187317,538.774414 656.968018,538.949097 
	C656.937134,539.226746 656.906311,539.504395 656.875427,539.782043 
	C655.704651,539.782043 654.533936,539.782043 653.363159,539.782043 
	C653.375305,539.646301 653.337097,539.467407 653.409302,539.383057 
	C653.603271,539.156250 653.844482,538.969910 654.346436,538.596313 
z"/>
<path fill="#222222" opacity="1.000000" stroke="none" 
	d="
M908.308350,543.485535 
	C907.885620,543.100342 907.690308,542.858826 907.494995,542.617310 
	C907.712646,542.492554 907.930237,542.367737 908.147888,542.242920 
	C908.277161,542.705017 908.406433,543.167114 908.308350,543.485535 
z"/>
<path fill="#222222" opacity="1.000000" stroke="none" 
	d="
M652.702637,541.362793 
	C652.705688,541.800964 652.508972,542.047791 652.312256,542.294556 
	C652.375793,541.920227 652.439392,541.545837 652.702637,541.362793 
z"/>
<path fill="#171717" opacity="1.000000" stroke="none" 
	d="
M314.645081,495.266602 
	C317.165497,501.365601 319.514404,507.122528 321.896210,512.959961 
	C316.847321,514.363464 314.127197,513.539185 312.450531,508.380768 
	C309.687256,499.879456 309.245667,500.023010 300.276855,500.023071 
	C293.963684,500.023102 287.650513,500.023071 281.377777,500.023071 
	C280.060760,503.235840 278.635315,506.082825 277.721100,509.085480 
	C276.210632,514.046265 272.972656,514.218140 268.537659,512.920715 
	C272.695648,503.412445 276.725037,494.184357 280.766205,484.961456 
	C284.094574,477.365295 287.437408,469.775513 290.772675,462.182404 
	C291.695068,460.082458 292.391022,457.189819 295.429260,458.275238 
	C297.426086,458.988617 299.753235,460.622803 300.582336,462.455475 
	C305.433472,473.178619 309.886353,484.081970 314.645081,495.266602 
M291.331360,476.653229 
	C288.970367,482.213654 286.609375,487.774048 284.143402,493.581757 
	C291.788269,493.581757 298.697906,493.581757 306.405243,493.581757 
	C302.749908,484.590454 299.294006,476.089722 295.503204,466.765259 
	C293.889771,470.483368 292.709961,473.202148 291.331360,476.653229 
z"/>
<path fill="#151515" opacity="1.000000" stroke="none" 
	d="
M431.180420,498.100342 
	C431.180359,503.380859 431.180359,508.178741 431.180359,513.227905 
	C428.949707,513.227905 427.212555,513.227905 424.990509,513.227905 
	C424.990509,506.169617 425.025848,499.385437 424.980927,492.601776 
	C424.932709,485.318207 422.742584,482.293518 417.343140,481.878448 
	C411.347412,481.417511 406.905182,484.773468 406.105591,491.325989 
	C405.423981,496.911591 405.637207,502.611084 405.537231,508.261627 
	C405.440460,513.731445 405.486786,513.732239 399.526733,513.101868 
	C399.526733,493.919495 399.526733,474.691467 399.526733,455.417969 
	C404.819214,453.608734 405.496765,454.041138 405.517548,459.514557 
	C405.543243,466.277893 405.523712,473.041351 405.523712,479.809723 
	C409.639648,478.444092 413.087769,476.615204 416.685974,476.244934 
	C424.854523,475.404358 430.394409,480.461426 430.984894,488.633301 
	C431.200500,491.617218 431.123779,494.622253 431.180420,498.100342 
z"/>
<path fill="#171717" opacity="1.000000" stroke="none" 
	d="
M349.286316,508.098846 
	C352.000427,506.719757 354.295227,505.420837 357.069366,503.850586 
	C358.030609,504.557831 359.301819,505.493103 360.552338,506.413177 
	C355.754700,513.967712 344.942474,516.625244 336.586060,512.576416 
	C328.316467,508.569611 324.375641,498.294556 327.418091,488.672485 
	C330.234009,479.766907 339.562073,474.561432 349.222656,476.504578 
	C358.058014,478.281708 362.740875,485.632599 361.923492,497.196838 
	C352.604126,497.196838 343.209717,497.196838 333.793976,497.196838 
	C334.409698,505.862915 340.327789,509.920898 349.286316,508.098846 
M346.189117,481.957092 
	C337.940094,482.083344 334.113159,485.114044 333.752655,491.684875 
	C340.989929,491.684875 348.230438,491.684875 355.677551,491.684875 
	C354.984283,486.150848 352.426392,482.800110 346.189117,481.957092 
z"/>
<path fill="#131313" opacity="1.000000" stroke="none" 
	d="
M441.519592,488.458374 
	C447.787872,476.884155 458.120331,472.996460 467.997101,478.217163 
	C475.352753,482.105225 476.302368,489.101593 476.757599,497.230164 
	C468.357697,497.230164 460.147858,497.230164 451.090942,497.227966 
	C445.325928,497.934784 448.384644,500.467194 449.049164,502.452332 
	C449.049164,502.452332 449.079529,502.756989 449.326874,503.134155 
	C450.660767,504.503387 451.747345,505.495453 452.833923,506.487488 
	C458.418213,509.769104 463.207825,509.811951 467.846344,505.822784 
	C470.826050,503.260132 472.618530,503.612549 474.582520,507.211395 
	C470.612671,513.091309 464.597351,514.408813 457.562012,514.382080 
	C444.388397,512.072937 438.879333,503.107910 441.519592,488.458374 
M448.298004,488.680237 
	C448.079132,489.615936 447.860229,490.551666 447.573212,491.778656 
	C455.135376,491.778656 462.389526,491.778656 469.763062,491.778656 
	C469.771912,486.624847 467.266449,483.540985 462.565796,482.236542 
	C456.769104,480.628021 452.537170,482.412628 448.298004,488.680237 
z"/>
<path fill="#131313" opacity="1.000000" stroke="none" 
	d="
M375.045105,504.577637 
	C375.010223,496.986359 375.010223,489.847931 375.010223,482.441772 
	C372.313019,482.275452 370.014252,482.133667 367.364319,481.970276 
	C367.364319,480.416870 367.364319,478.907745 367.364319,477.038940 
	C369.789124,477.038940 372.071808,477.038940 374.794312,477.038940 
	C374.794312,473.605927 374.794312,470.513733 374.794312,467.130127 
	C377.000977,467.130127 378.762604,467.130127 380.990479,467.130127 
	C380.990479,470.324463 380.990479,473.406403 380.990479,476.930115 
	C384.698120,476.930115 387.954346,476.930115 391.509979,476.930115 
	C391.509979,478.789917 391.509979,480.188538 391.509979,481.933899 
	C388.162140,482.083679 384.888336,482.230164 381.226349,482.393982 
	C381.226349,489.647491 380.907959,496.761932 381.339081,503.830658 
	C381.623169,508.488464 383.766022,509.198975 391.296326,508.327454 
	C392.443298,513.457214 392.317780,513.646851 387.424286,514.180115 
	C379.309998,515.064270 376.625153,513.074341 375.045105,504.577637 
z"/>
<path fill="#171717" opacity="1.000000" stroke="none" 
	d="
M238.974472,463.217163 
	C239.036697,461.437714 239.098846,460.128906 239.180206,458.415283 
	C240.912048,458.327209 242.479706,458.247498 244.468781,458.146362 
	C244.468781,464.407166 244.468781,470.311096 244.468781,476.618042 
	C242.855911,476.618042 241.169373,476.618042 238.974380,476.618042 
	C238.974380,472.277130 238.974380,467.982483 238.974472,463.217163 
z"/>
<path fill="#1F1F1F" opacity="1.000000" stroke="none" 
	d="
M255.593857,458.725708 
	C255.858490,464.852264 255.858490,470.618896 255.858490,476.791138 
	C254.173721,476.870422 252.621872,476.943420 250.718842,477.032959 
	C250.718842,470.629181 250.718842,464.596313 250.718842,458.151123 
	C252.441711,458.231323 253.885468,458.298553 255.593857,458.725708 
z"/>
<path fill="#737373" opacity="1.000000" stroke="none" 
	d="
M466.481812,543.464722 
	C466.228241,541.776917 466.164703,540.425293 466.101166,539.073669 
	C466.472473,538.990479 466.843781,538.907288 467.215088,538.824097 
	C467.737976,540.182617 468.260895,541.541138 469.038269,543.560791 
	C469.784698,541.731995 470.337402,540.377869 470.890106,539.023682 
	C471.336731,539.097107 471.783325,539.170532 472.229919,539.243958 
	C471.818146,540.986755 471.740784,542.949402 470.816620,544.355408 
	C470.484619,544.860474 468.112732,544.024719 466.481812,543.464722 
z"/>
<path fill="#1B1B1B" opacity="1.000000" stroke="none" 
	d="
M1031.035156,467.028992 
	C1031.035156,470.465759 1031.035156,473.418243 1031.035156,476.697266 
	C1029.032227,476.697266 1027.345459,476.697266 1025.388306,476.697266 
	C1025.388306,470.654297 1025.388306,464.781952 1025.388306,458.490387 
	C1027.102661,458.347260 1028.669678,458.216431 1031.035156,458.018921 
	C1031.035156,461.072632 1031.035156,463.808655 1031.035156,467.028992 
z"/>
<path fill="#1F1F1F" opacity="1.000000" stroke="none" 
	d="
M1019.493347,475.415131 
	C1017.865417,476.390015 1016.297424,476.918152 1014.253662,477.606537 
	C1014.253662,470.776245 1014.253662,464.741852 1014.253662,458.425964 
	C1015.921631,458.425964 1017.451355,458.425964 1019.553284,458.425964 
	C1019.553284,464.132385 1019.553284,469.550385 1019.493347,475.415131 
z"/>
<path fill="#131313" opacity="1.000000" stroke="none" 
	d="
M493.837158,478.939087 
	C497.868317,477.773651 501.494537,476.644440 505.719971,475.328644 
	C505.853119,478.183350 505.927307,479.773468 505.999390,481.319244 
	C493.779938,483.907562 492.222839,485.852051 492.185974,498.330414 
	C492.171753,503.143402 492.183655,507.956482 492.183655,513.137085 
	C490.116364,513.137085 488.385406,513.137085 486.289124,513.137085 
	C486.289124,501.229767 486.289124,489.353943 486.289124,476.473572 
	C488.883881,477.382355 491.158051,478.178864 493.837158,478.939087 
z"/>
<path fill="#9B9B9B" opacity="1.000000" stroke="none" 
	d="
M449.272919,502.121796 
	C448.384644,500.467194 445.325928,497.934784 450.629883,497.309662 
	C450.509460,498.859467 450.003082,500.325378 449.272919,502.121796 
z"/>
<path fill="#9B9B9B" opacity="1.000000" stroke="none" 
	d="
M528.369141,543.569397 
	C529.146973,543.531860 529.839539,543.757751 530.532104,543.983643 
	C530.228943,544.457458 529.925781,544.931213 529.622681,545.404968 
	C529.176331,544.880920 528.730042,544.356873 528.369141,543.569397 
z"/>
<path fill="#9B9B9B" opacity="1.000000" stroke="none" 
	d="
M452.833191,506.084534 
	C451.747345,505.495453 450.660767,504.503387 449.450958,503.223816 
	C450.495941,503.851440 451.664215,504.766510 452.833191,506.084534 
z"/>
<path fill="#9B9B9B" opacity="1.000000" stroke="none" 
	d="
M494.097717,540.108887 
	C493.890320,541.133789 493.682953,542.158691 493.475555,543.183533 
	C493.163300,543.093384 492.851074,543.003235 492.538818,542.913086 
	C492.865021,542.013245 493.191223,541.113403 493.763062,540.111694 
	C494.008698,540.009888 494.097687,540.108887 494.097717,540.108887 
z"/>
<path fill="#9B9B9B" opacity="1.000000" stroke="none" 
	d="
M527.461365,540.342407 
	C527.220825,539.859619 527.170166,539.443115 527.119446,539.026550 
	C527.518738,539.150452 527.917969,539.274414 528.317261,539.398315 
	C528.095276,539.735107 527.873230,540.071899 527.461365,540.342407 
z"/>
<path fill="#9B9B9B" opacity="1.000000" stroke="none" 
	d="
M493.964447,539.960144 
	C494.944824,539.502808 495.969482,539.095215 496.994110,538.687683 
	C497.097290,539.044006 497.200470,539.400391 497.303619,539.756775 
	C496.435608,539.859863 495.567566,539.963013 494.398621,540.087524 
	C494.097687,540.108887 494.008698,540.009888 493.964447,539.960144 
z"/>
<path fill="#737373" opacity="1.000000" stroke="none" 
	d="
M541.153137,542.928467 
	C541.460083,542.559631 541.762024,542.382324 542.064026,542.205078 
	C542.044922,542.614868 542.025757,543.024658 542.006653,543.434448 
	C541.720520,543.329651 541.434326,543.224854 541.153137,542.928467 
z"/>
<path fill="#9B9B9B" opacity="1.000000" stroke="none" 
	d="
M508.260681,539.180542 
	C508.168091,539.421570 507.940430,539.622498 507.690369,539.790100 
	C507.667542,539.805420 507.501373,539.606812 507.401764,539.507568 
	C507.641022,539.382202 507.880249,539.256775 508.260681,539.180542 
z"/>
<path fill="#9B9B9B" opacity="1.000000" stroke="none" 
	d="
M498.034790,543.700073 
	C498.110840,543.899658 498.063507,544.094543 498.016174,544.289490 
	C497.981262,544.091492 497.946320,543.893494 498.034790,543.700073 
z"/>
<path fill="#737373" opacity="1.000000" stroke="none" 
	d="
M571.804932,540.494629 
	C571.714783,540.282104 571.752502,540.083252 571.790161,539.884399 
	C571.837708,540.092346 571.885315,540.300354 571.804932,540.494629 
z"/>
<path fill="#9E9E9E" opacity="1.000000" stroke="none" 
	d="
M625.677490,350.506042 
	C606.186157,340.934906 607.284546,315.556305 623.445435,306.698517 
	C633.303833,301.295105 645.276550,302.647827 653.289978,310.590363 
	C660.871033,318.104492 662.487427,331.382660 656.944031,340.606964 
	C651.288208,350.018341 639.517395,354.626556 628.869263,351.587494 
	C627.912292,351.314392 626.975098,350.971741 625.677490,350.506042 
z"/>
<path fill="#9B9B9B" opacity="1.000000" stroke="none" 
	d="
M590.171631,399.404053 
	C586.164307,401.919891 581.985962,402.147736 579.507507,398.769928 
	C577.780762,396.416595 577.345764,392.387634 577.816284,389.335724 
	C578.391907,385.601868 582.165100,383.992310 585.535889,384.715546 
	C588.111877,385.268280 591.064941,387.183350 592.463501,389.376678 
	C594.590149,392.711823 593.502197,396.375946 590.171631,399.404053 
z"/>
<path fill="#9B9B9B" opacity="1.000000" stroke="none" 
	d="
M563.433228,314.398346 
	C567.218567,317.602173 568.231567,321.129517 566.073608,325.289062 
	C564.218872,328.864044 561.046387,329.938049 557.302063,329.349945 
	C553.316528,328.723907 551.301514,325.995819 550.762939,322.203430 
	C549.815247,315.529846 555.783325,311.680695 563.433228,314.398346 
z"/>
<path fill="#9B9B9B" opacity="1.000000" stroke="none" 
	d="
M590.586060,234.884857 
	C595.510986,236.579453 597.634033,239.806839 596.691711,244.523651 
	C595.885681,248.558624 592.953003,250.817261 588.951660,250.903595 
	C584.669189,250.995956 581.840271,248.564880 580.822144,244.365601 
	C579.513672,238.968597 583.566711,234.893005 590.586060,234.884857 
z"/>
<path fill="#9B9B9B" opacity="1.000000" stroke="none" 
	d="
M707.830444,344.132080 
	C704.140503,342.074921 702.578125,338.993225 704.221191,335.652924 
	C705.210205,333.642334 707.952087,331.426483 710.016907,331.312744 
	C712.079529,331.199158 715.110901,333.125305 716.173767,335.022247 
	C717.131531,336.731750 716.859680,340.469666 715.572693,341.761566 
	C713.928589,343.411957 710.721558,343.505371 707.830444,344.132080 
z"/>
<path fill="#9B9B9B" opacity="1.000000" stroke="none" 
	d="
M660.572388,481.970673 
	C667.695129,484.264404 670.861877,488.221161 671.004089,494.515411 
	C671.141052,500.578033 668.035461,505.941956 663.279419,507.857361 
	C657.910278,510.019653 652.035583,508.747162 648.367188,504.327728 
	C644.627136,499.821930 644.236755,494.756531 646.535950,489.427704 
	C649.137024,483.399384 653.815674,481.164825 660.572388,481.970673 
z"/>
<path fill="#A4A4A4" opacity="1.000000" stroke="none" 
	d="
M941.728760,507.303131 
	C931.709534,510.906464 923.201721,505.691223 922.889221,496.182770 
	C922.665710,489.380157 926.181702,483.888855 931.831421,482.216858 
	C937.179749,480.634064 943.803162,483.150238 946.594177,487.825134 
	C949.716736,493.055359 948.770935,501.140594 944.489990,505.351685 
	C943.792542,506.037811 942.893921,506.519348 941.728760,507.303131 
z"/>
<path fill="#9B9B9B" opacity="1.000000" stroke="none" 
	d="
M585.923279,485.911316 
	C594.235474,478.535889 603.635925,481.255554 605.785095,491.637573 
	C598.379517,491.637573 591.040894,491.637573 583.037598,491.637573 
	C584.018494,489.642395 584.861084,487.928558 585.923279,485.911316 
z"/>
<path fill="#979797" opacity="1.000000" stroke="none" 
	d="
M291.430786,476.287079 
	C292.709961,473.202148 293.889771,470.483368 295.503204,466.765259 
	C299.294006,476.089722 302.749908,484.590454 306.405243,493.581757 
	C298.697906,493.581757 291.788269,493.581757 284.143402,493.581757 
	C286.609375,487.774048 288.970367,482.213654 291.430786,476.287079 
z"/>
<path fill="#979797" opacity="1.000000" stroke="none" 
	d="
M346.606262,481.985077 
	C352.426392,482.800110 354.984283,486.150848 355.677551,491.684875 
	C348.230438,491.684875 340.989929,491.684875 333.752655,491.684875 
	C334.113159,485.114044 337.940094,482.083344 346.606262,481.985077 
z"/>
<path fill="#979797" opacity="1.000000" stroke="none" 
	d="
M448.404266,488.327148 
	C452.537170,482.412628 456.769104,480.628021 462.565796,482.236542 
	C467.266449,483.540985 469.771912,486.624847 469.763062,491.778656 
	C462.389526,491.778656 455.135376,491.778656 447.573212,491.778656 
	C447.860229,490.551666 448.079132,489.615936 448.404266,488.327148 
z"/>
</svg>